<svg aria-hidden="true" style="position: absolute; width: 0; height: 0; overflow: hidden;" version="1.1" xmlns="http://www.w3.org/2000/svg" xmlns:xlink="http://www.w3.org/1999/xlink">
<defs>
<symbol id="icon-close-btn-exp" viewBox="0 0 32 32">
<path fill="#fff" style="fill: var(--color1, #fff)" d="M32 16c0 8.837-7.163 16-16 16s-16-7.163-16-16c0-8.837 7.163-16 16-16s16 7.163 16 16z"></path>
<path fill="#000" style="fill: var(--color2, #000)" opacity="0.1" d="M16 32c-8.853 0-16-7.147-16-16s7.147-16 16-16 16 7.147 16 16-7.147 16-16 16zM16 1.067c-8.213 0-14.933 6.72-14.933 14.933s6.72 14.933 14.933 14.933 14.933-6.72 14.933-14.933-6.72-14.933-14.933-14.933z"></path>
<path fill="#000" style="fill: var(--color2, #000)" d="M22.4 10.773l-1.173-1.173-4.693 4.693-4.693-4.693-1.173 1.173 4.693 4.693-4.693 4.693 1.173 1.173 4.693-4.693 4.693 4.693 1.173-1.173-4.693-4.693 4.693-4.693z"></path>
</symbol>
</defs>
</svg>
